<?xml version="1.0" encoding="UTF-8" standalone="no"?>
<!DOCTYPE svg PUBLIC "-//W3C//DTD SVG 1.1//EN" "http://www.w3.org/Graphics/SVG/1.1/DTD/svg11.dtd">
<svg width="100%" height="100%" viewBox="0 0 2414 342" version="1.1" xmlns="http://www.w3.org/2000/svg" xmlns:xlink="http://www.w3.org/1999/xlink" xml:space="preserve" xmlns:serif="http://www.serif.com/" style="fill-rule:evenodd;clip-rule:evenodd;stroke-miterlimit:2;">
    <g transform="matrix(1,0,0,1,7.41492,4.99826)">
        <g transform="matrix(4.16667,0,0,4.16667,0,0)">
            <path d="M39.282,26.289C41.653,29.002 49.795,37.039 52.769,39.775C50.055,42.146 42.016,50.285 39.282,53.262C36.911,50.548 28.771,42.511 25.796,39.775C28.51,37.405 36.546,29.265 39.282,26.289Z" style="fill:none;stroke:rgb(255,221,0);stroke-width:2.88px;"/>
        </g>
        <g transform="matrix(4.16667,0,0,4.16667,0,0)">
            <path d="M39.295,2.018C41.266,2.018 42.864,7.44 42.864,14.126C42.864,20.81 40.622,25.172 39.295,26.231C37.889,25.143 35.724,20.81 35.724,14.126C35.724,7.44 37.323,2.018 39.295,2.018Z" style="fill:none;stroke:rgb(255,221,0);stroke-width:2.88px;"/>
        </g>
        <g transform="matrix(4.16667,0,0,4.16667,0,0)">
            <path d="M1.438,39.803C1.438,37.833 6.859,36.234 13.545,36.234C20.231,36.234 24.593,38.477 25.651,39.803C24.563,41.208 20.231,43.376 13.545,43.376C6.859,43.376 1.438,41.777 1.438,39.803Z" style="fill:none;stroke:rgb(255,221,0);stroke-width:2.88px;"/>
        </g>
        <g transform="matrix(4.16667,0,0,4.16667,0,0)">
            <path d="M39.297,77.562C37.325,77.562 35.726,72.142 35.726,65.455C35.726,58.771 37.97,54.408 39.297,53.349C40.702,54.439 42.869,58.771 42.869,65.455C42.869,72.142 41.27,77.562 39.297,77.562Z" style="fill:none;stroke:rgb(255,221,0);stroke-width:2.88px;"/>
        </g>
        <g transform="matrix(4.16667,0,0,4.16667,0,0)">
            <path d="M76.982,39.838C76.982,41.81 71.561,43.409 64.878,43.409C58.19,43.409 53.827,41.166 52.769,39.838C53.861,38.435 58.19,36.267 64.878,36.267C71.561,36.267 76.982,37.866 76.982,39.838Z" style="fill:none;stroke:rgb(255,221,0);stroke-width:2.88px;"/>
        </g>
        <g transform="matrix(4.16667,0,0,4.16667,0,0)">
            <path d="M109.623,53.301C111.219,53.301 112.476,54.075 112.476,54.994C112.476,56.009 111.171,56.734 109.72,56.734L98.842,56.734C97.246,56.734 95.991,55.477 95.991,53.882L95.991,25.793C95.991,24.295 97.246,22.942 98.842,22.942L108.704,22.942C110.301,22.942 111.557,23.714 111.557,24.633C111.557,25.697 110.301,26.373 108.704,26.373L102.517,26.373C100.922,26.373 99.664,27.63 99.664,29.226L99.664,34.496C99.664,36.091 100.922,37.347 102.517,37.347L107.351,37.347C108.947,37.347 110.204,38.073 110.204,39.088C110.204,40.006 108.947,40.828 107.351,40.828L102.517,40.828C100.922,40.828 99.664,42.086 99.664,43.681L99.664,50.449C99.664,52.044 100.922,53.301 102.517,53.301L109.623,53.301Z" style="fill:white;fill-rule:nonzero;"/>
        </g>
        <g transform="matrix(4.16667,0,0,4.16667,0,0)">
            <path d="M127.222,25.793L127.222,35.898C127.222,36.768 127.416,37.203 127.755,37.203C128.045,37.203 128.382,36.912 128.72,36.333L135.248,25.455C136.069,24.101 137.761,23.039 139.019,23.039C139.888,23.039 140.275,23.472 140.275,24.101C140.275,24.489 140.131,24.972 139.841,25.455L135.248,33.143C134.716,33.915 134.475,34.979 134.475,35.994C134.475,36.768 134.619,37.541 134.909,38.17L142.5,54.075C142.741,54.608 142.838,55.09 142.838,55.477C142.838,56.251 142.451,56.734 141.677,56.734C140.517,56.734 139.019,55.573 138.342,54.075L132.492,41.505C132.202,40.78 131.718,40.393 131.187,40.393C130.703,40.393 130.172,40.684 129.785,41.264L128.963,42.521C128.093,43.826 127.368,46.195 127.368,47.693L127.368,53.882C127.368,55.477 126.448,56.734 125.531,56.734C124.515,56.734 123.694,55.477 123.694,53.882L123.597,25.793C123.597,24.295 124.37,22.942 125.386,22.942C126.448,22.942 127.222,24.295 127.222,25.793Z" style="fill:white;fill-rule:nonzero;"/>
        </g>
        <g transform="matrix(4.16667,0,0,4.16667,0,0)">
            <path d="M156.231,25.793L156.231,35.898C156.231,36.768 156.424,37.203 156.763,37.203C157.052,37.203 157.392,36.912 157.73,36.333L164.256,25.455C165.078,24.101 166.77,23.039 168.028,23.039C168.897,23.039 169.284,23.472 169.284,24.101C169.284,24.489 169.139,24.972 168.849,25.455L164.256,33.143C163.724,33.915 163.483,34.979 163.483,35.994C163.483,36.768 163.628,37.541 163.918,38.17L171.508,54.075C171.75,54.608 171.846,55.09 171.846,55.477C171.846,56.251 171.459,56.734 170.686,56.734C169.526,56.734 168.028,55.573 167.35,54.075L161.501,41.505C161.211,40.78 160.727,40.393 160.196,40.393C159.712,40.393 159.179,40.684 158.793,41.264L157.971,42.521C157.102,43.826 156.376,46.195 156.376,47.693L156.376,53.882C156.376,55.477 155.457,56.734 154.538,56.734C153.524,56.734 152.701,55.477 152.701,53.882L152.605,25.793C152.605,24.295 153.379,22.942 154.394,22.942C155.457,22.942 156.231,24.295 156.231,25.793Z" style="fill:white;fill-rule:nonzero;"/>
        </g>
        <g transform="matrix(4.16667,0,0,4.16667,0,0)">
            <path d="M184.611,53.882C184.272,55.477 183.161,56.734 182.096,56.734C181.323,56.734 180.888,55.961 180.888,54.897C180.888,54.559 180.888,54.219 180.985,53.882L187.608,25.697C187.946,24.197 189.107,22.942 190.267,22.942C191.379,22.942 192.636,24.15 193.022,25.697L199.646,53.882C199.743,54.268 199.792,54.608 199.792,54.945C199.792,56.009 199.307,56.734 198.486,56.734C197.47,56.734 196.31,55.477 195.972,53.882L190.8,30.386C190.654,29.661 190.412,29.274 190.171,29.274C189.928,29.274 189.735,29.661 189.542,30.386L184.611,53.882Z" style="fill:white;fill-rule:nonzero;"/>
        </g>
        <g transform="matrix(4.16667,0,0,4.16667,0,0)">
            <path d="M210.913,53.882L210.765,25.793C210.765,24.295 211.59,22.942 212.604,22.942C213.619,22.942 214.441,24.295 214.441,25.793L214.441,34.496C214.441,36.091 215.699,37.347 217.294,37.347L221.306,37.347C222.901,37.347 224.208,36.091 224.208,34.496L224.208,25.793C224.208,24.295 224.981,22.942 225.996,22.942C227.057,22.942 227.832,24.295 227.832,25.793L227.832,53.882C227.832,55.477 227.057,56.734 225.996,56.734C224.981,56.734 224.208,55.477 224.208,53.882L224.208,43.681C224.208,42.086 222.901,40.828 221.306,40.828L217.294,40.828C215.699,40.828 214.441,42.086 214.441,43.681L214.537,53.882C214.537,55.477 213.763,56.734 212.749,56.734C211.685,56.734 210.913,55.477 210.913,53.882Z" style="fill:white;fill-rule:nonzero;"/>
        </g>
        <g transform="matrix(4.16667,0,0,4.16667,0,0)">
            <path d="M249.928,36.574C250.412,37.299 250.654,38.218 250.654,39.185C250.654,39.959 250.508,40.732 250.121,41.36L244.756,50.788C244.561,51.174 244.465,51.513 244.465,51.851C244.465,52.722 245.094,53.301 246.254,53.301L255.198,53.301C256.647,53.301 258.049,54.075 258.049,54.994C258.049,55.912 256.792,56.734 255.198,56.734L241.419,56.734C239.921,56.734 238.566,56.154 238.566,55.573C238.566,54.897 239.097,53.301 239.921,51.9L246.012,41.505C246.398,40.877 246.543,40.055 246.543,39.233C246.543,38.266 246.351,37.299 245.915,36.574L240.164,27.727C239.244,26.373 238.566,24.778 238.566,24.101C238.566,23.522 239.823,22.942 241.419,22.942L253.36,22.942C254.811,22.942 256.213,23.714 256.213,24.633C256.213,25.551 254.811,26.373 253.36,26.373L246.012,26.373C244.948,26.373 244.319,26.858 244.319,27.583C244.319,27.92 244.465,28.356 244.756,28.791L249.928,36.574Z" style="fill:white;fill-rule:nonzero;"/>
        </g>
        <g transform="matrix(4.16667,0,0,4.16667,0,0)">
            <path d="M281.451,22.942C283.047,22.942 284.352,23.714 284.352,24.633C284.352,25.697 283.047,26.373 281.451,26.373L281.258,26.373C279.613,26.373 278.356,27.63 278.356,29.226L278.356,50.449C278.356,52.044 279.613,53.301 281.258,53.301L282.031,53.301C283.529,53.301 284.884,54.075 284.884,54.994C284.884,55.912 283.627,56.734 282.031,56.734L270.671,56.734C269.219,56.734 267.818,55.912 267.818,54.994C267.818,54.075 269.075,53.301 270.671,53.301L271.83,53.301C273.425,53.301 274.682,52.044 274.682,50.449L274.682,29.226C274.682,27.63 273.425,26.373 271.83,26.373L271.153,26.373C269.557,26.373 268.301,25.697 268.301,24.633C268.301,23.714 269.557,22.942 271.153,22.942L281.451,22.942Z" style="fill:white;fill-rule:nonzero;"/>
        </g>
        <g transform="matrix(4.16667,0,0,4.16667,0,0)">
            <path d="M304.609,42.086C306.01,42.086 306.929,41.167 306.929,39.91C306.929,39.717 306.929,39.524 306.881,39.33L304.947,31.064C304.754,30.289 304.56,29.855 304.318,29.855C304.077,29.855 303.834,30.289 303.689,31.064L301.95,39.33C301.901,39.571 301.901,39.765 301.901,39.959C301.901,41.215 302.771,42.086 304.124,42.086L304.609,42.086ZM303.109,45.518C301.514,45.518 299.919,46.776 299.531,48.37L298.274,53.978C297.936,55.477 296.824,56.734 295.762,56.734C294.987,56.734 294.456,56.057 294.456,55.042C294.456,54.704 294.552,54.365 294.649,53.978L301.61,25.793C301.997,24.197 303.207,22.942 304.367,22.942C305.526,22.942 306.735,24.15 307.123,25.793L314.229,53.978C314.326,54.316 314.374,54.655 314.374,54.945C314.374,56.009 313.843,56.734 313.069,56.734C312.053,56.734 310.941,55.526 310.554,53.978L309.056,48.37C308.621,46.776 307.123,45.518 305.526,45.518L303.109,45.518Z" style="fill:white;fill-rule:nonzero;"/>
        </g>
        <g transform="matrix(4.16667,0,0,4.16667,0,0)">
            <path d="M345.818,53.544C347.415,53.544 348.672,54.317 348.672,55.236C348.672,56.251 347.366,56.976 345.915,56.976L335.038,56.976C333.443,56.976 332.186,55.719 332.186,54.124L332.186,26.036C332.186,24.537 333.443,23.184 335.038,23.184L344.9,23.184C346.496,23.184 347.753,23.957 347.753,24.875C347.753,25.939 346.496,26.616 344.9,26.616L338.712,26.616C337.117,26.616 335.86,27.873 335.86,29.468L335.86,34.738C335.86,36.333 337.117,37.59 338.712,37.59L343.547,37.59C345.142,37.59 346.399,38.315 346.399,39.331C346.399,40.249 345.142,41.071 343.547,41.071L338.712,41.071C337.117,41.071 335.86,42.328 335.86,43.923L335.86,50.692C335.86,52.287 337.117,53.544 338.712,53.544L345.818,53.544Z" style="fill:rgb(255,221,0);fill-rule:nonzero;"/>
        </g>
        <g transform="matrix(4.16667,0,0,4.16667,0,0)">
            <path d="M375.6,23.184C377.052,23.184 378.453,23.957 378.453,24.875C378.453,25.794 377.052,26.616 375.6,26.616L373.958,26.616C372.362,26.616 371.104,27.873 371.104,29.468L371.104,34.399C371.104,35.994 372.265,37.252 373.619,37.252C375.02,37.252 376.133,38.073 376.133,38.992C376.133,40.007 375.02,40.684 373.619,40.684C372.265,40.684 371.104,42.086 371.104,43.585L371.104,50.692C371.104,52.287 372.362,53.544 373.958,53.544L376.037,53.544C377.631,53.544 378.888,54.317 378.888,55.236C378.888,56.155 377.631,56.976 376.037,56.976L362.885,56.976C361.243,56.976 359.985,56.155 359.985,55.236C359.985,54.221 361.243,53.544 362.741,53.544L364.578,53.544C366.174,53.544 367.43,52.287 367.43,50.692L367.43,43.585C367.43,42.086 366.416,40.684 365.061,40.684C363.757,40.684 362.644,40.007 362.644,38.992C362.644,38.073 363.757,37.252 365.061,37.252C366.416,37.252 367.43,35.994 367.43,34.399L367.43,29.468C367.43,27.873 366.174,26.616 364.578,26.616L363.225,26.616C361.581,26.616 360.324,25.794 360.324,24.875C360.324,23.957 361.581,23.184 363.225,23.184L375.6,23.184Z" style="fill:rgb(255,221,0);fill-rule:nonzero;"/>
        </g>
        <g transform="matrix(4.16667,0,0,4.16667,0,0)">
            <path d="M398.663,42.328C400.065,42.328 400.983,41.409 400.983,40.152C400.983,39.959 400.983,39.766 400.934,39.572L399.002,31.305C398.807,30.532 398.614,30.097 398.373,30.097C398.132,30.097 397.889,30.532 397.744,31.305L396.004,39.572C395.956,39.814 395.956,40.007 395.956,40.201C395.956,41.458 396.825,42.328 398.179,42.328L398.663,42.328ZM397.165,45.761C395.568,45.761 393.973,47.018 393.587,48.612L392.33,54.221C391.991,55.719 390.88,56.976 389.815,56.976C389.043,56.976 388.51,56.3 388.51,55.284C388.51,54.946 388.607,54.608 388.704,54.221L395.666,26.036C396.052,24.44 397.261,23.184 398.422,23.184C399.582,23.184 400.79,24.392 401.177,26.036L408.283,54.221C408.38,54.559 408.428,54.898 408.428,55.187C408.428,56.251 407.897,56.976 407.123,56.976C406.108,56.976 404.996,55.768 404.609,54.221L403.11,48.612C402.676,47.018 401.177,45.761 399.582,45.761L397.165,45.761Z" style="fill:rgb(255,221,0);fill-rule:nonzero;"/>
        </g>
        <g transform="matrix(4.16667,0,0,4.16667,0,0)">
            <path d="M422.547,43.343L423.369,43.343C424.965,43.343 426.318,43.004 427.574,42.424C428.832,41.989 429.895,41.168 430.668,40.249C431.49,39.331 432.071,38.17 432.409,36.914C432.602,35.898 432.699,34.883 432.699,33.819C432.699,33.432 432.699,33.094 432.65,32.707C432.506,31.789 432.312,30.967 431.926,30.291C431.732,29.468 431.249,28.791 430.668,28.212C430.137,27.534 429.412,27.051 428.494,26.713C427.719,26.375 426.802,26.278 425.64,26.278C425.206,26.278 424.722,26.278 424.046,26.375C423.803,26.375 423.466,26.519 423.224,26.519C422.789,26.616 422.305,27.873 422.305,29.468L422.305,40.345C422.305,41.989 422.45,43.247 422.547,43.343ZM418.776,54.124L418.679,26.616C418.679,25.021 419.453,23.521 420.468,23.425C421.193,23.28 421.724,23.184 422.305,23.184C423.561,23.038 424.722,22.942 425.737,22.942C427.477,22.942 428.832,23.184 430.137,23.667C431.393,24.102 432.409,24.778 433.328,25.697C434.101,26.519 434.826,27.437 435.261,28.55C435.697,29.613 435.938,30.677 436.132,31.789C436.132,31.885 436.18,32.03 436.18,32.127C436.228,32.659 436.277,33.191 436.277,33.722C436.277,35.125 436.084,36.478 435.745,37.832C435.261,39.572 434.584,41.168 433.569,42.424C432.506,43.778 431.249,44.842 429.75,45.567C428.155,46.34 426.559,46.679 424.626,46.679L423.466,46.679C423.369,46.679 423.128,46.534 422.885,46.534C422.547,46.534 422.305,47.791 422.305,49.29L422.305,54.462C422.305,55.912 421.483,56.976 420.613,56.976C419.55,56.976 418.776,55.719 418.776,54.124Z" style="fill:rgb(255,221,0);fill-rule:nonzero;"/>
        </g>
        <g transform="matrix(4.16667,0,0,4.16667,0,0)">
            <path d="M448.51,54.317C447.929,55.816 446.527,56.976 445.415,56.976C444.69,56.976 444.255,56.493 444.255,55.671C444.255,55.284 444.352,54.801 444.594,54.317L449.863,42.521C450.201,41.796 450.346,40.83 450.346,39.862C450.346,38.895 450.201,37.977 449.863,37.252L444.931,25.794C444.786,25.407 444.69,25.021 444.69,24.682C444.69,23.812 445.174,23.184 445.996,23.184C447.107,23.184 448.51,24.44 449.09,25.939L452.038,34.061C452.28,34.786 452.617,35.172 452.957,35.172C453.296,35.172 453.635,34.786 453.876,33.964L456.292,25.939C456.727,24.44 457.984,23.184 459.144,23.184C459.967,23.184 460.401,23.812 460.401,24.682C460.401,25.068 460.353,25.504 460.16,25.939L455.954,37.252C455.664,38.025 455.518,38.992 455.518,39.959C455.518,40.926 455.664,41.845 455.954,42.521L460.643,54.317C460.788,54.753 460.884,55.187 460.884,55.525C460.884,56.397 460.401,56.976 459.627,56.976C458.468,56.976 457.163,55.816 456.631,54.221L453.876,45.615C453.635,44.89 453.296,44.551 452.957,44.551C452.617,44.551 452.231,44.89 451.941,45.615L448.51,54.317Z" style="fill:rgb(255,221,0);fill-rule:nonzero;"/>
        </g>
        <g transform="matrix(4.16667,0,0,4.16667,0,0)">
            <path d="M486.993,53.544C488.588,53.544 489.844,54.317 489.844,55.236C489.844,56.251 488.541,56.976 487.089,56.976L476.212,56.976C474.617,56.976 473.36,55.719 473.36,54.124L473.36,26.036C473.36,24.537 474.617,23.184 476.212,23.184L486.073,23.184C487.671,23.184 488.927,23.957 488.927,24.875C488.927,25.939 487.671,26.616 486.073,26.616L479.885,26.616C478.293,26.616 477.035,27.873 477.035,29.468L477.035,34.738C477.035,36.333 478.293,37.59 479.885,37.59L484.72,37.59C486.315,37.59 487.573,38.315 487.573,39.331C487.573,40.249 486.315,41.071 484.72,41.071L479.885,41.071C478.293,41.071 477.035,42.328 477.035,43.923L477.035,50.692C477.035,52.287 478.293,53.544 479.885,53.544L486.993,53.544Z" style="fill:rgb(255,221,0);fill-rule:nonzero;"/>
        </g>
        <g transform="matrix(4.16667,0,0,4.16667,0,0)">
            <path d="M515.711,23.184C517.306,23.184 518.612,23.957 518.612,24.875C518.612,25.939 517.306,26.616 515.711,26.616L515.517,26.616C513.875,26.616 512.617,27.873 512.617,29.468L512.617,50.692C512.617,52.287 513.875,53.544 515.517,53.544L516.292,53.544C517.791,53.544 519.143,54.317 519.143,55.236C519.143,56.155 517.887,56.976 516.292,56.976L504.93,56.976C503.481,56.976 502.078,56.155 502.078,55.236C502.078,54.317 503.336,53.544 504.93,53.544L506.09,53.544C507.686,53.544 508.943,52.287 508.943,50.692L508.943,29.468C508.943,27.873 507.686,26.616 506.09,26.616L505.414,26.616C503.818,26.616 502.561,25.939 502.561,24.875C502.561,23.957 503.818,23.184 505.414,23.184L515.711,23.184Z" style="fill:rgb(255,221,0);fill-rule:nonzero;"/>
        </g>
        <g transform="matrix(4.16667,0,0,4.16667,0,0)">
            <path d="M544.14,50.885C544.865,49.531 545.398,48.177 545.785,46.534C546.026,45.325 546.171,44.068 546.171,42.763C546.171,42.328 546.123,41.942 546.123,41.506C546.123,39.91 545.978,38.315 545.881,36.719L545.204,32.707C544.962,31.402 544.527,30.291 544.043,29.372C543.608,28.453 543.028,27.631 542.207,27.051C541.531,26.519 540.611,26.278 539.692,26.278C538.677,26.278 537.76,26.519 536.938,27.051C536.26,27.631 535.583,28.453 535.1,29.372C534.665,30.145 534.326,31.209 533.939,32.321C533.746,33.626 533.505,34.738 533.408,35.898C533.408,35.994 533.36,36.043 533.36,36.14C533.263,36.962 533.215,37.735 533.215,38.461C533.215,38.798 533.215,39.137 533.263,39.427C533.263,40.588 533.263,41.603 533.408,42.521C533.505,43.778 533.746,44.939 533.844,46.098C534.086,47.259 534.326,48.371 534.761,49.29C535.1,50.353 535.583,51.271 536.164,52.046C536.502,52.384 536.84,52.867 537.276,53.206C537.855,53.64 538.532,54.704 538.532,55.478C538.532,56.3 537.276,56.976 535.68,56.976L532.006,56.976C530.41,56.976 529.154,56.155 529.154,55.236C529.154,54.317 530.072,53.544 531.329,53.544C532.248,53.544 532.78,53.302 532.78,52.867C532.78,52.722 532.73,52.577 532.586,52.384C532.344,52.046 532.15,51.61 531.909,51.127C531.427,50.353 531.087,49.434 530.893,48.371C530.508,47.452 530.314,46.437 530.17,45.422C529.976,44.261 529.83,43.247 529.734,42.086C529.636,41.071 529.541,40.056 529.541,39.041C529.541,38.653 529.541,38.267 529.589,37.832C529.589,36.333 529.734,34.883 529.927,33.481C530.17,31.982 530.508,30.726 530.991,29.372C531.427,28.115 532.006,26.954 532.829,25.939C533.601,25.021 534.52,24.199 535.68,23.618C536.84,23.038 538.097,22.7 539.692,22.7C541.192,22.7 542.448,23.184 543.608,23.86C544.72,24.537 545.785,25.6 546.557,26.858C547.38,27.969 548.056,29.468 548.492,31.064C548.974,32.707 549.313,34.399 549.556,36.236C549.651,37.832 549.796,39.427 549.796,41.071C549.796,42.666 549.651,44.165 549.313,45.615C549.071,47.114 548.636,48.612 548.056,49.87C547.814,50.546 547.476,51.271 547.137,51.803C546.897,52.19 546.8,52.528 546.8,52.771C546.8,53.254 547.186,53.544 547.959,53.544C549.071,53.544 550.135,54.317 550.135,55.236C550.135,56.155 548.878,56.976 547.235,56.976L543.705,56.976C542.207,56.976 540.853,56.3 540.853,55.622C540.853,54.801 541.771,53.64 542.69,52.722C543.221,52.287 543.705,51.61 544.14,50.885Z" style="fill:rgb(255,221,0);fill-rule:nonzero;"/>
        </g>
        <g transform="matrix(4.16667,0,0,4.16667,0,0)">
            <path d="M563.528,54.124C563.528,55.719 562.754,56.976 561.689,56.976C560.675,56.976 559.902,55.719 559.902,54.124L559.902,26.036C559.902,24.537 560.772,23.184 562.077,23.184C563.334,23.184 564.688,24.44 565.267,25.939L573.051,47.018C573.342,47.743 573.535,48.081 573.679,48.081C573.873,48.081 573.969,47.646 573.969,46.775L573.728,26.036C573.728,24.537 574.55,23.184 575.565,23.184C576.484,23.184 577.402,24.537 577.402,26.036L577.402,54.124C577.402,55.719 576.387,56.976 575.226,56.976C573.969,56.976 572.616,55.816 572.036,54.221L564.446,32.804C564.204,32.078 563.963,31.74 563.769,31.74C563.576,31.74 563.431,32.175 563.431,33.046L563.528,54.124Z" style="fill:rgb(255,221,0);fill-rule:nonzero;"/>
        </g>
    </g>
</svg>
